<?xml version="1.0" encoding="utf-8"?>
<!-- Generator: Adobe Illustrator 16.0.0, SVG Export Plug-In . SVG Version: 6.00 Build 0)  -->
<!DOCTYPE svg PUBLIC "-//W3C//DTD SVG 1.1//EN" "http://www.w3.org/Graphics/SVG/1.1/DTD/svg11.dtd">
<svg version="1.1" id="svg2" xmlns:svg="http://www.w3.org/2000/svg"
	 xmlns="http://www.w3.org/2000/svg" xmlns:xlink="http://www.w3.org/1999/xlink" x="0px" y="0px" width="168.28px"
	 height="65.715px" viewBox="0 210.959 168.28 65.715" enable-background="new 0 210.959 168.28 65.715" xml:space="preserve">
<g id="g12" transform="matrix(1.25,0,0,-1.25,0,55.061211)">
	<path id="path16" fill="#E2001A" d="M5.356-124.718h42.098c2.979,0,5.356-2.368,5.356-5.329v-41.911
		c0-2.96-2.377-5.333-5.356-5.333H5.356c-2.979,0-5.356,2.373-5.356,5.333v41.911C0-127.086,2.377-124.718,5.356-124.718"/>
	<path id="path20" fill="#FFFFFF" d="M30.792-133.748h-8.63l0.299-20.881h7.888L30.792-133.748z"/>
	<path id="path22" fill="#FFFFFF" d="M22.755-160.255h7.44v-7.999h-7.44V-160.255z"/>
</g>
<g>
	<path fill="#0070AF" d="M74.821,247.247h5.791c2.609,0,4.525,0.443,5.748,1.328c1.223,0.887,1.834,2.225,1.834,4.016
		c0,1.223-0.374,2.24-1.12,3.055c-0.746,0.812-1.836,1.336-3.271,1.566v0.086c1.685,0.251,2.924,0.783,3.719,1.597
		s1.191,1.947,1.191,3.401c0,1.944-0.645,3.442-1.935,4.491c-1.291,1.05-3.12,1.574-5.488,1.574h-6.47V247.247z M76.294,256.648
		h4.65c1.983,0,3.425-0.329,4.325-0.989c0.9-0.659,1.351-1.691,1.351-3.098s-0.508-2.426-1.524-3.062s-2.53-0.954-4.542-0.954h-4.26
		V256.648z M76.294,257.948v9.113h4.968c3.909,0,5.864-1.589,5.864-4.766c0-2.898-2.061-4.348-6.181-4.348H76.294z"/>
	<path fill="#0070AF" d="M102.535,268.361l-0.361-2.484h-0.116c-0.79,1.012-1.601,1.727-2.433,2.145
		c-0.833,0.419-1.818,0.629-2.954,0.629c-1.541,0-2.739-0.395-3.596-1.185c-0.857-0.789-1.285-1.882-1.285-3.278
		c0-1.531,0.638-2.72,1.914-3.567c1.275-0.848,3.122-1.295,5.539-1.343l2.989-0.087v-1.039c0-1.493-0.303-2.619-0.91-3.381
		c-0.606-0.76-1.584-1.141-2.932-1.141c-1.454,0-2.961,0.404-4.521,1.213l-0.535-1.241c1.724-0.81,3.428-1.214,5.113-1.214
		c1.723,0,3.011,0.448,3.863,1.344s1.278,2.291,1.278,4.188v10.442H102.535z M96.758,267.35c1.675,0,2.997-0.479,3.964-1.438
		c0.968-0.958,1.452-2.289,1.452-3.993v-1.545l-2.744,0.115c-2.205,0.106-3.776,0.45-4.715,1.032
		c-0.938,0.583-1.408,1.49-1.408,2.723c0,0.982,0.301,1.745,0.903,2.289C94.811,267.078,95.66,267.35,96.758,267.35z"/>
	<path fill="#0070AF" d="M114.421,252.359c1.136,0,2.118,0.207,2.946,0.621s1.569,1.122,2.224,2.123h0.086
		c-0.058-1.214-0.086-2.402-0.086-3.567v-5.646h1.416v22.472h-0.939l-0.361-2.397h-0.116c-1.194,1.791-2.908,2.687-5.142,2.687
		c-2.166,0-3.822-0.674-4.968-2.022c-1.146-1.348-1.718-3.312-1.718-5.893c0-2.715,0.568-4.789,1.704-6.225
		C110.603,253.077,112.255,252.359,114.421,252.359z M114.421,253.659c-1.714,0-3.001,0.602-3.863,1.805
		c-0.862,1.204-1.292,2.951-1.292,5.243c0,4.448,1.728,6.672,5.185,6.672c1.771,0,3.071-0.515,3.899-1.545s1.242-2.729,1.242-5.099
		v-0.245c0-2.427-0.407-4.171-1.22-5.235C117.557,254.191,116.241,253.659,114.421,253.659z"/>
	<path fill="#0070AF" d="M138.525,252.663v0.996l-3.25,0.202c0.867,1.079,1.3,2.263,1.3,3.553c0,1.512-0.503,2.737-1.509,3.676
		c-1.006,0.938-2.356,1.408-4.051,1.408c-0.713,0-1.213-0.029-1.502-0.087c-0.568,0.299-1.001,0.649-1.3,1.055
		c-0.299,0.404-0.448,0.832-0.448,1.285c0,0.501,0.19,0.866,0.57,1.098c0.38,0.23,1.018,0.347,1.914,0.347h2.744
		c1.704,0,3.009,0.344,3.914,1.032c0.905,0.688,1.358,1.706,1.358,3.055c0,1.656-0.672,2.934-2.015,3.834
		c-1.343,0.9-3.257,1.351-5.741,1.351c-1.974,0-3.502-0.38-4.585-1.141c-1.083-0.761-1.625-1.82-1.625-3.178
		c0-1.078,0.334-1.974,1.004-2.686c0.669-0.713,1.576-1.199,2.722-1.459c-0.472-0.202-0.85-0.488-1.134-0.859
		s-0.426-0.797-0.426-1.278c0-1.049,0.669-1.974,2.007-2.773c-0.915-0.375-1.627-0.965-2.138-1.769s-0.765-1.726-0.765-2.766
		c0-1.569,0.498-2.828,1.495-3.776c0.997-0.949,2.342-1.423,4.037-1.423c1.03,0,1.829,0.101,2.397,0.304H138.525z M125.816,271.018
		c0,2.157,1.603,3.235,4.809,3.235c4.121,0,6.181-1.314,6.181-3.943c0-0.943-0.323-1.627-0.967-2.051
		c-0.646-0.423-1.69-0.635-3.134-0.635h-2.571C127.255,267.625,125.816,268.755,125.816,271.018z M127.015,257.558
		c0,1.213,0.368,2.154,1.104,2.823c0.737,0.67,1.721,1.004,2.954,1.004c1.309,0,2.313-0.332,3.011-0.996
		c0.698-0.664,1.047-1.627,1.047-2.889c0-1.338-0.359-2.342-1.076-3.012c-0.717-0.669-1.721-1.004-3.011-1.004
		c-1.252,0-2.236,0.359-2.954,1.076C127.373,255.279,127.015,256.278,127.015,257.558z"/>
	<path fill="#0070AF" d="M148.086,268.65c-2.282,0-4.061-0.703-5.336-2.108c-1.276-1.406-1.914-3.375-1.914-5.907
		c0-2.503,0.616-4.509,1.849-6.015c1.232-1.508,2.893-2.261,4.982-2.261c1.849,0,3.307,0.646,4.376,1.935
		c1.069,1.291,1.603,3.043,1.603,5.258v1.155h-11.308c0.019,2.157,0.522,3.803,1.509,4.939c0.987,1.136,2.399,1.704,4.239,1.704
		c0.896,0,1.683-0.062,2.361-0.188s1.538-0.396,2.578-0.81v1.3c-0.886,0.386-1.704,0.648-2.455,0.787
		C149.819,268.58,148.991,268.65,148.086,268.65z M147.667,253.629c-1.512,0-2.725,0.498-3.64,1.495
		c-0.915,0.997-1.449,2.434-1.603,4.312h9.706c0-1.82-0.395-3.242-1.185-4.268S149.063,253.629,147.667,253.629z"/>
	<path fill="#0070AF" d="M167.713,264.274c0,1.405-0.535,2.486-1.604,3.242c-1.068,0.756-2.585,1.134-4.549,1.134
		c-2.099,0-3.765-0.322-4.997-0.968v-1.545c1.579,0.789,3.244,1.184,4.997,1.184c1.55,0,2.728-0.257,3.531-0.772
		c0.804-0.515,1.206-1.201,1.206-2.058c0-0.79-0.32-1.454-0.96-1.993c-0.641-0.54-1.692-1.069-3.156-1.589
		c-1.569-0.568-2.672-1.057-3.307-1.466s-1.115-0.872-1.437-1.387c-0.323-0.515-0.484-1.144-0.484-1.885
		c0-1.175,0.493-2.104,1.48-2.787c0.987-0.684,2.366-1.025,4.138-1.025c1.694,0,3.302,0.317,4.824,0.953l-0.535,1.3
		c-1.541-0.635-2.97-0.953-4.289-0.953c-1.281,0-2.296,0.212-3.047,0.635c-0.751,0.424-1.126,1.012-1.126,1.763
		c0,0.818,0.291,1.474,0.874,1.964c0.583,0.491,1.721,1.04,3.416,1.646c1.416,0.511,2.446,0.971,3.091,1.379
		c0.645,0.41,1.129,0.874,1.452,1.395C167.552,262.959,167.713,263.571,167.713,264.274z"/>
</g>
</svg>
